<svg xmlns="http://www.w3.org/2000/svg" viewBox="0 0 296.25 197.65"><defs><style>.cls-1{fill:#ee8d22;}</style></defs><title>Asset16</title><g id="Layer_2" data-name="Layer 2"><g id="Layer_1-2" data-name="Layer 1"><path className="cls-1" d="M31.82,125.58H17.74a3.52,3.52,0,0,1,0-7H38.86a7,7,0,0,0,0-14.08H17.74a17.6,17.6,0,0,0,0,35.2H31.82a3.52,3.52,0,1,1,0,7H7.18a7,7,0,1,0,0,14.08H31.82a17.6,17.6,0,0,0,0-35.2Z"/><path className="cls-1" d="M81.55,104.46a28.16,28.16,0,1,0,28.16,28.16A28.22,28.22,0,0,0,81.55,104.46Zm0,42.24a14.08,14.08,0,1,1,14.08-14.08A14,14,0,0,1,81.55,146.7Z"/><path className="cls-1" d="M143.48,104.46a27.54,27.54,0,0,0-14.08,3.85V90.38a7,7,0,0,0-14.08,0v63.36a7,7,0,0,0,14.08,0V132.62a14.08,14.08,0,0,1,28.16,0v21.12a7,7,0,0,0,14.08,0V132.62A28.21,28.21,0,0,0,143.48,104.46Z"/><path className="cls-1" d="M230.83,144.89a28.37,28.37,0,0,0,2.87-12.27V111.5a7,7,0,1,0-14.08,0v21.12a14.08,14.08,0,0,1-28.16,0V111.5a7,7,0,0,0-14.08,0v21.12a28.21,28.21,0,0,0,28.16,28.16A27,27,0,0,0,219.4,157s0,0,0,0A31.77,31.77,0,0,0,230.83,144.89Z"/><path className="cls-1" d="M268.1,104.46A27.54,27.54,0,0,0,254,108.31V90.38a7,7,0,0,0-14.08,0v42.24a28,28,0,0,0,3.63,13.86l-.1.06A31.18,31.18,0,0,0,254,157.14l.06-.1a27.76,27.76,0,0,0,14.08,3.74,28.16,28.16,0,0,0,0-56.32Zm0,42.24a14.08,14.08,0,1,1,14.08-14.08A14,14,0,0,1,268.1,146.7Z"/><line className="cls-1" x1="146.68" y1="32.81" x2="146.68" y2="31.94"/><path className="cls-1" d="M115.57,58.93q-3.27-2.38-3.27-7.44a19.16,19.16,0,0,1,.35-3.52l1.61-9.16a6.61,6.61,0,0,0,.12-1.4,2.51,2.51,0,0,0-.86-1.73,3.2,3.2,0,0,0-2.35-.86h-.6l1.43-8.1h.59a4.52,4.52,0,0,0,2.86-1,4.63,4.63,0,0,0,1.67-3l1.61-9q1.42-7.86,6.78-10.95A22.17,22.17,0,0,1,136.58,0L135,9.11q-6,0-7.2,6.66l-1.66,9.35c-.52,3.05-1.79,4.92-3.81,5.59a2.16,2.16,0,0,1,.83.72A5.49,5.49,0,0,1,124.2,35a8.72,8.72,0,0,1-.12,1.43l-1.66,9.46a12.2,12.2,0,0,0-.18,2c0,3.1,1.68,4.65,5.06,4.65l-1.61,9.1Q119.44,61.66,115.57,58.93Z"/><path className="cls-1" d="M171,27a10.56,10.56,0,0,1,.18-1.84l1.66-9.35a12.2,12.2,0,0,0,.18-2c0-3.1-1.68-4.64-5.06-4.64L169.55,0q6.25,0,10.12,2.74,3.27,2.37,3.27,7.56a18.59,18.59,0,0,1-.35,3.39l-1.61,9a6.55,6.55,0,0,0-.12,1.4,2.49,2.49,0,0,0,.86,1.72,3.25,3.25,0,0,0,2.41.86h.6l-1.43,8.1h-.59a4.58,4.58,0,0,0-2.86,1,4.68,4.68,0,0,0-1.67,3L176.57,48a18.21,18.21,0,0,1-2.5,6.67,13,13,0,0,1-4.28,4.29,22.23,22.23,0,0,1-11.13,2.73l1.61-9.1q6.06,0,7.26-6.67l1.66-9.46a8.84,8.84,0,0,1,1.16-3.07,8.49,8.49,0,0,1,1.58-2,3.07,3.07,0,0,1,1-.66C171.63,30.12,171,28.87,171,27Z"/><polygon className="cls-1" points="138.1 35.61 129.66 35.61 132.14 27.11 140.83 27.11 138.1 35.61"/><polygon className="cls-1" points="150.05 35.61 141.61 35.61 144.1 27.11 152.79 27.11 150.05 35.61"/><polygon className="cls-1" points="162.01 35.61 153.57 35.61 156.05 27.11 164.75 27.11 162.01 35.61"/><path className="cls-1" d="M0,187.26H1.94v.33a8.43,8.43,0,0,0,.23,2.29,1.74,1.74,0,0,0,.78,1,3.58,3.58,0,0,0,1.29.34c.59.06,1.79.1,3.62.1a10.43,10.43,0,0,0,2.3-.2,2.35,2.35,0,0,0,1.22-.62,1.68,1.68,0,0,0,.32-.8,8.54,8.54,0,0,0,.11-1.52,4.72,4.72,0,0,0-.39-2.44,2.18,2.18,0,0,0-1.55-.59l-5.37-.42a4.89,4.89,0,0,1-3.33-1.2,5,5,0,0,1-.92-3.43,8.13,8.13,0,0,1,.3-2.44,3.4,3.4,0,0,1,1-1.53A3.13,3.13,0,0,1,3,175.51a19.21,19.21,0,0,1,3.35-.2H7a18.9,18.9,0,0,1,3.77.26,4.24,4.24,0,0,1,1.83.89,2.49,2.49,0,0,1,.74,1.2,6.63,6.63,0,0,1,.24,1.93v.52c0,.12,0,.23,0,.33H11.59V180a7.51,7.51,0,0,0-.11-1.46,1.59,1.59,0,0,0-.36-.76,2.37,2.37,0,0,0-1.29-.51,29.38,29.38,0,0,0-3.53-.14c-1.79,0-2.92.2-3.38.6a3.24,3.24,0,0,0-.69,2.44,3.46,3.46,0,0,0,.45,2.06,2.39,2.39,0,0,0,1.74.67l5.47.46a4.33,4.33,0,0,1,3,1.19,5,5,0,0,1,.86,3.33,10.94,10.94,0,0,1-.22,2.57,3.23,3.23,0,0,1-2.44,2.43,17.55,17.55,0,0,1-3.9.29H6.35a15.73,15.73,0,0,1-3.41-.25,3.79,3.79,0,0,1-1.67-.85,3.37,3.37,0,0,1-1-1.52A7.93,7.93,0,0,1,0,188.12Z"/><path className="cls-1" d="M21.79,193.1c-1.84,0-3.12-.36-3.85-1.08s-1.1-2-1.1-3.77v-2.93c0-1.81.36-3.07,1.09-3.79s2-1.07,3.84-1.07h.85c1.84,0,3.13.36,3.86,1.07s1.1,2,1.1,3.79v2.93c0,1.8-.36,3.06-1.09,3.78s-2,1.07-3.84,1.07Zm3.91-5.26v-2.11c0-1.55-.2-2.54-.59-3a3.43,3.43,0,0,0-2.49-.64h-.85a3.43,3.43,0,0,0-2.46.63c-.39.42-.58,1.41-.58,3v2.11c0,1.56.2,2.56.59,3a3.4,3.4,0,0,0,2.45.63h.85a3.42,3.42,0,0,0,2.48-.64Q25.7,190.17,25.7,187.84Z"/><path className="cls-1" d="M30.87,192.93V175.52h1.81v17.41Z"/><path className="cls-1" d="M46.5,180.62v12.31H44.75v-1.67a2.77,2.77,0,0,1-1.43,1.39,6.43,6.43,0,0,1-2.62.45,4.69,4.69,0,0,1-3.38-1,4.77,4.77,0,0,1-1-3.42v-8.08h1.81v7.7a3.81,3.81,0,0,0,.58,2.52,3,3,0,0,0,2.23.61,3.82,3.82,0,0,0,2.8-.88,3.77,3.77,0,0,0,.88-2.78v-7.17Z"/><path className="cls-1" d="M49,182.18v-1.56h1.51v-2.77h1.82v2.77h6v1.56h-6V189a3,3,0,0,0,.47,2,2.42,2.42,0,0,0,1.81.52,2.43,2.43,0,0,0,1.78-.5,3.06,3.06,0,0,0,.46-2v-.36h1.85v.1c0,1.73-.29,2.9-.86,3.5s-1.76.9-3.57.9a3.73,3.73,0,0,1-2.94-1,5.36,5.36,0,0,1-.82-3.44v-6.52Z"/><path className="cls-1" d="M62.07,177.58v-2.06h1.82v2.06Zm0,15.35V180.62h1.82v12.31Z"/><path className="cls-1" d="M72.13,193.1c-1.84,0-3.13-.36-3.86-1.08s-1.1-2-1.1-3.77v-2.93c0-1.81.37-3.07,1.09-3.79s2-1.07,3.85-1.07H73c1.84,0,3.12.36,3.86,1.07s1.1,2,1.1,3.79v2.93c0,1.8-.37,3.06-1.1,3.78s-2,1.07-3.84,1.07Zm3.9-5.26v-2.11c0-1.55-.19-2.54-.59-3a3.42,3.42,0,0,0-2.48-.64h-.85a3.45,3.45,0,0,0-2.47.63q-.57.63-.57,3v2.11c0,1.56.19,2.56.58,3a3.43,3.43,0,0,0,2.46.63H73a3.45,3.45,0,0,0,2.48-.64C75.84,190.38,76,189.39,76,187.84Z"/><path className="cls-1" d="M81.2,192.93V180.62h1.74v1.69a2.83,2.83,0,0,1,1.43-1.4,6.32,6.32,0,0,1,2.6-.45,4.67,4.67,0,0,1,3.39,1,4.83,4.83,0,0,1,1,3.43v8.06H89.5v-7.68a4,4,0,0,0-.56-2.53,3,3,0,0,0-2.21-.61,3.88,3.88,0,0,0-2.82.88,3.77,3.77,0,0,0-.9,2.79v7.15Z"/><path className="cls-1" d="M103.3,192.93V175.52h1.92V183h10v-7.52h1.92v17.41h-1.92v-8.06h-10v8.06Z"/><path className="cls-1" d="M131.2,180.62v12.31h-1.76v-1.67a2.75,2.75,0,0,1-1.42,1.39,6.46,6.46,0,0,1-2.62.45,4.69,4.69,0,0,1-3.38-1,4.77,4.77,0,0,1-1-3.42v-8.08h1.81v7.7a3.88,3.88,0,0,0,.57,2.52,3.08,3.08,0,0,0,2.24.61,3.84,3.84,0,0,0,2.8-.88,3.77,3.77,0,0,0,.88-2.78v-7.17Z"/><path className="cls-1" d="M135,192.93V175.52h1.81v6.86a3.22,3.22,0,0,1,1.42-1.47,5.39,5.39,0,0,1,2.41-.45,5.09,5.09,0,0,1,3.71,1.09c.73.72,1.09,2,1.09,3.77v2.93c0,1.78-.36,3-1.09,3.76a5.09,5.09,0,0,1-3.71,1.09,5.39,5.39,0,0,1-2.52-.5,3,3,0,0,1-1.38-1.56v1.89Zm1.81-7.15v2a3.78,3.78,0,0,0,.89,2.79,4,4,0,0,0,2.87.87,3.23,3.23,0,0,0,2.38-.64c.4-.43.59-1.42.59-3v-2.11c0-1.56-.19-2.55-.59-3a3.23,3.23,0,0,0-2.38-.64,4,4,0,0,0-2.87.87A3.79,3.79,0,0,0,136.8,185.78Z"/><path className="cls-1" d="M154.64,177.37v-1.85h13v1.85h-5.57v15.56h-1.93V177.37Z"/><path className="cls-1" d="M169.91,193.1c-1.84,0-3.13-.36-3.86-1.08s-1.1-2-1.1-3.77v-2.93c0-1.81.37-3.07,1.1-3.79s2-1.07,3.84-1.07h.85c1.84,0,3.13.36,3.86,1.07s1.1,2,1.1,3.79v1.86h-8.85c0,.13,0,.27,0,.42s0,.36,0,.64a3.87,3.87,0,0,0,.61,2.55,3.42,3.42,0,0,0,2.46.65h.85A4.09,4.09,0,0,0,173,191a2.19,2.19,0,0,0,.75-1.66h1.89a3.79,3.79,0,0,1-1.28,2.89,6,6,0,0,1-3.63.89Zm-3.06-7.52h7v-.48a3.36,3.36,0,0,0-.62-2.35,3.59,3.59,0,0,0-2.46-.62h-.85a3.51,3.51,0,0,0-2.44.62,3.43,3.43,0,0,0-.6,2.35Z"/><path className="cls-1" d="M183.44,193.1c-1.84,0-3.13-.36-3.86-1.08s-1.1-2-1.1-3.77v-2.93c0-1.81.36-3.07,1.09-3.79s2-1.07,3.84-1.07h.86a5.7,5.7,0,0,1,3.76,1,4.31,4.31,0,0,1,1.2,3.28h-1.89a2.86,2.86,0,0,0-.68-2.06,3.7,3.7,0,0,0-2.39-.56h-.86a3.43,3.43,0,0,0-2.46.63c-.38.42-.58,1.41-.58,3v2.11c0,1.56.2,2.56.59,3a3.42,3.42,0,0,0,2.45.63h.86a3.65,3.65,0,0,0,2.44-.61,3.11,3.11,0,0,0,.63-2.24v-.21h1.89v.23a4.45,4.45,0,0,1-1.15,3.44,5.58,5.58,0,0,1-3.79,1Z"/><path className="cls-1" d="M192.51,192.93V175.52h1.74v6.79a2.79,2.79,0,0,1,1.43-1.4,6.27,6.27,0,0,1,2.59-.45,4.68,4.68,0,0,1,3.4,1,4.83,4.83,0,0,1,1,3.43v8.06h-1.83v-7.68a3.89,3.89,0,0,0-.57-2.53,3,3,0,0,0-2.2-.61,3.9,3.9,0,0,0-2.82.87,3.78,3.78,0,0,0-.9,2.8v7.15Z"/><path className="cls-1" d="M206.31,192.93V180.62h1.74v1.69a2.79,2.79,0,0,1,1.43-1.4,6.24,6.24,0,0,1,2.59-.45,4.67,4.67,0,0,1,3.39,1,4.78,4.78,0,0,1,1,3.43v8.06h-1.82v-7.68a3.89,3.89,0,0,0-.57-2.53,3,3,0,0,0-2.2-.61A3.9,3.9,0,0,0,209,183a3.81,3.81,0,0,0-.89,2.79v7.15Z"/><path className="cls-1" d="M224.56,193.1c-1.84,0-3.13-.36-3.86-1.08s-1.1-2-1.1-3.77v-2.93c0-1.81.37-3.07,1.09-3.79s2-1.07,3.85-1.07h.85c1.84,0,3.12.36,3.86,1.07s1.1,2,1.1,3.79v2.93c0,1.8-.37,3.06-1.1,3.78s-2,1.07-3.84,1.07Zm3.9-5.26v-2.11c0-1.55-.19-2.54-.59-3a3.42,3.42,0,0,0-2.48-.64h-.85a3.45,3.45,0,0,0-2.47.63q-.57.63-.57,3v2.11c0,1.56.19,2.56.58,3a3.43,3.43,0,0,0,2.46.63h.85a3.45,3.45,0,0,0,2.48-.64C228.26,190.38,228.46,189.39,228.46,187.84Z"/><path className="cls-1" d="M233.63,192.93V175.52h1.81v17.41Z"/><path className="cls-1" d="M243.69,193.1c-1.84,0-3.13-.36-3.86-1.08s-1.1-2-1.1-3.77v-2.93c0-1.81.36-3.07,1.09-3.79s2-1.07,3.84-1.07h.86c1.84,0,3.12.36,3.86,1.07s1.09,2,1.09,3.79v2.93c0,1.8-.36,3.06-1.09,3.78s-2,1.07-3.84,1.07Zm3.9-5.26v-2.11c0-1.55-.2-2.54-.59-3a3.42,3.42,0,0,0-2.48-.64h-.86a3.43,3.43,0,0,0-2.46.63c-.38.42-.58,1.41-.58,3v2.11c0,1.56.2,2.56.59,3a3.42,3.42,0,0,0,2.45.63h.86a3.45,3.45,0,0,0,2.48-.64C247.39,190.38,247.59,189.39,247.59,187.84Z"/><path className="cls-1" d="M263.05,180.62v12.17a5.38,5.38,0,0,1-1.06,3.79c-.71.71-2,1.07-3.75,1.07h-.84a5.72,5.72,0,0,1-3.52-.88,3.87,3.87,0,0,1-1.26-2.9h1.86a2.22,2.22,0,0,0,.73,1.64,3.86,3.86,0,0,0,2.22.46h.81a3.9,3.9,0,0,0,2.31-.52,2,2,0,0,0,.69-1.72v-2.55a3.25,3.25,0,0,1-1.41,1.47,5.49,5.49,0,0,1-2.43.45,5.07,5.07,0,0,1-3.7-1.09,5.25,5.25,0,0,1-1.08-3.76v-2.93a5.26,5.26,0,0,1,1.08-3.77,5.07,5.07,0,0,1,3.7-1.09,5.45,5.45,0,0,1,2.52.5,3.05,3.05,0,0,1,1.39,1.58v-1.92Zm-1.81,7.17v-2a3.75,3.75,0,0,0-.9-2.8,4,4,0,0,0-2.87-.87,3.24,3.24,0,0,0-2.39.65q-.6.65-.6,3v2.11c0,1.54.2,2.53.6,3a3.28,3.28,0,0,0,2.39.65,4,4,0,0,0,2.87-.87A3.74,3.74,0,0,0,261.24,187.79Z"/><path className="cls-1" d="M266.84,177.58v-2.06h1.81v2.06Zm0,15.35V180.62h1.81v12.31Z"/><path className="cls-1" d="M276.89,193.1c-1.84,0-3.12-.36-3.86-1.08s-1.1-2-1.1-3.77v-2.93c0-1.81.37-3.07,1.1-3.79s2-1.07,3.84-1.07h.85c1.84,0,3.13.36,3.86,1.07s1.1,2,1.1,3.79v1.86h-8.85c0,.13,0,.27,0,.42v.64a3.88,3.88,0,0,0,.6,2.55,3.44,3.44,0,0,0,2.46.65h.85A4.09,4.09,0,0,0,280,191a2.19,2.19,0,0,0,.75-1.66h1.9a3.83,3.83,0,0,1-1.29,2.89,5.93,5.93,0,0,1-3.62.89Zm-3.06-7.52h7v-.48a3.36,3.36,0,0,0-.62-2.35,3.58,3.58,0,0,0-2.46-.62h-.85a3.47,3.47,0,0,0-2.43.62,3.37,3.37,0,0,0-.61,2.35Z"/><path className="cls-1" d="M285.51,189.27h1.85v.29a1.68,1.68,0,0,0,.7,1.56,6.22,6.22,0,0,0,2.82.42,5.83,5.83,0,0,0,2.92-.43,2,2,0,0,0,.55-1.67,2.17,2.17,0,0,0-.45-1.61,4.28,4.28,0,0,0-2.25-.5l-1.8-.07a9,9,0,0,1-3-.34,2.16,2.16,0,0,1-1-1,4.81,4.81,0,0,1-.3-1.92,3.19,3.19,0,0,1,1-2.77q1-.72,4.59-.72a7,7,0,0,1,3.72.69,2.77,2.77,0,0,1,1,2.42H294.1v-.12a1.13,1.13,0,0,0-.7-1.13,8.48,8.48,0,0,0-2.82-.31,5.53,5.53,0,0,0-2.59.38,1.75,1.75,0,0,0-.56,1.56,3.4,3.4,0,0,0,.1,1,.81.81,0,0,0,.38.45,6.88,6.88,0,0,0,2.43.34l.73,0c1,0,1.84.09,2.42.16a4.14,4.14,0,0,1,1.26.27,2.32,2.32,0,0,1,1.16,1.08,4.71,4.71,0,0,1,.34,2,5,5,0,0,1-.33,2.06,3.13,3.13,0,0,1-1.22,1.24,3.39,3.39,0,0,1-1.3.37,22.61,22.61,0,0,1-2.5.11c-2.18,0-3.63-.25-4.33-.76a3.13,3.13,0,0,1-1.06-2.74Z"/></g></g></svg>